<svg xmlns="http://www.w3.org/2000/svg" viewBox="0 0 1200 900" width="1200" height="900" preserveAspectRatio="xMidYMid slice" role="img">
<defs>
<filter id="gr" x="0" y="0" width="100%" height="100%"><feTurbulence type="fractalNoise" baseFrequency="0.9" numOctaves="3" stitchTiles="stitch"/><feColorMatrix type="saturate" values="0"/></filter>
<radialGradient id="vig" cx="50%%" cy="42%%" r="78%%"><stop offset="55%%" stop-color="#000" stop-opacity="0"/><stop offset="100%%" stop-color="#000" stop-opacity="0.42"/></radialGradient>
<linearGradient id="sky" x1="0" y1="0" x2="0" y2="1"><stop offset="0%" stop-color="#0A0D11" stop-opacity="1"/><stop offset="58%" stop-color="#161C24" stop-opacity="1"/><stop offset="100%" stop-color="#3B4757" stop-opacity="1"/></linearGradient>
<radialGradient id="glow" cx="50%" cy="66%" r="62%"><stop offset="0%" stop-color="#E8681B" stop-opacity="0.42"/><stop offset="100%" stop-color="#E8681B" stop-opacity="0"/></radialGradient>
</defs>
<rect width="1200" height="900" fill="url(#sky)"/>
<rect width="1200" height="900" fill="url(#glow)"/>
<rect x="120" y="609" width="528" height="14.88" fill="#7C8794" opacity="0.46"/><rect x="120" y="623.88" width="528" height="78.12" fill="#1B222B" opacity="0.92"/><rect x="141.12" y="609" width="7" height="93" fill="#3B4757" opacity="0.75"/><rect x="262.56" y="609" width="7" height="93" fill="#3B4757" opacity="0.75"/><rect x="384" y="609" width="7" height="93" fill="#3B4757" opacity="0.75"/><rect x="505.44" y="609" width="7" height="93" fill="#3B4757" opacity="0.75"/><rect x="626.88" y="609" width="7" height="93" fill="#3B4757" opacity="0.75"/><rect x="120" y="609" width="528" height="93" fill="#F59B4B" opacity="0.18"/><rect x="120" y="516" width="528" height="14.88" fill="#7C8794" opacity="0.43"/><rect x="120" y="530.88" width="528" height="78.12" fill="#1B222B" opacity="0.86"/><rect x="141.12" y="516" width="7" height="93" fill="#3B4757" opacity="0.75"/><rect x="262.56" y="516" width="7" height="93" fill="#3B4757" opacity="0.75"/><rect x="384" y="516" width="7" height="93" fill="#3B4757" opacity="0.75"/><rect x="505.44" y="516" width="7" height="93" fill="#3B4757" opacity="0.75"/><rect x="626.88" y="516" width="7" height="93" fill="#3B4757" opacity="0.75"/><rect x="120" y="516" width="528" height="93" fill="#F59B4B" opacity="0.18"/><rect x="120" y="423" width="528" height="14.88" fill="#7C8794" opacity="0.4"/><rect x="120" y="437.88" width="528" height="78.12" fill="#1B222B" opacity="0.8"/><rect x="141.12" y="423" width="7" height="93" fill="#3B4757" opacity="0.75"/><rect x="262.56" y="423" width="7" height="93" fill="#3B4757" opacity="0.75"/><rect x="384" y="423" width="7" height="93" fill="#3B4757" opacity="0.75"/><rect x="505.44" y="423" width="7" height="93" fill="#3B4757" opacity="0.75"/><rect x="626.88" y="423" width="7" height="93" fill="#3B4757" opacity="0.75"/><rect x="120" y="330" width="528" height="14.88" fill="#7C8794" opacity="0.37"/><rect x="120" y="344.88" width="528" height="78.12" fill="#1B222B" opacity="0.74"/><rect x="141.12" y="330" width="7" height="93" fill="#3B4757" opacity="0.75"/><rect x="262.56" y="330" width="7" height="93" fill="#3B4757" opacity="0.75"/><rect x="384" y="330" width="7" height="93" fill="#3B4757" opacity="0.75"/><rect x="505.44" y="330" width="7" height="93" fill="#3B4757" opacity="0.75"/><rect x="626.88" y="330" width="7" height="93" fill="#3B4757" opacity="0.75"/><rect x="120" y="237" width="528" height="14.88" fill="#7C8794" opacity="0.34"/><rect x="120" y="251.88" width="528" height="78.12" fill="#1B222B" opacity="0.68"/><rect x="141.12" y="237" width="7" height="93" fill="#3B4757" opacity="0.75"/><rect x="262.56" y="237" width="7" height="93" fill="#3B4757" opacity="0.75"/><rect x="384" y="237" width="7" height="93" fill="#3B4757" opacity="0.75"/><rect x="505.44" y="237" width="7" height="93" fill="#3B4757" opacity="0.75"/><rect x="626.88" y="237" width="7" height="93" fill="#3B4757" opacity="0.75"/><rect x="120" y="144" width="528" height="14.88" fill="#7C8794" opacity="0.31"/><rect x="120" y="158.88" width="528" height="78.12" fill="#1B222B" opacity="0.62"/><rect x="141.12" y="144" width="7" height="93" fill="#3B4757" opacity="0.75"/><rect x="262.56" y="144" width="7" height="93" fill="#3B4757" opacity="0.75"/><rect x="384" y="144" width="7" height="93" fill="#3B4757" opacity="0.75"/><rect x="505.44" y="144" width="7" height="93" fill="#3B4757" opacity="0.75"/><rect x="626.88" y="144" width="7" height="93" fill="#3B4757" opacity="0.75"/>
<rect x="744" y="180" width="264" height="522" fill="#2A333E" opacity="0.85"/>
<rect x="751.04" y="200.88" width="35.79" height="26.1" fill="#B4BEC9" opacity="0.06"/><rect x="793.87" y="200.88" width="35.79" height="26.1" fill="#FFCB8E" opacity="0.49"/><rect x="836.69" y="200.88" width="35.79" height="26.1" fill="#B4BEC9" opacity="0.07"/><rect x="879.52" y="200.88" width="35.79" height="26.1" fill="#B4BEC9" opacity="0.09"/><rect x="922.35" y="200.88" width="35.79" height="26.1" fill="#B4BEC9" opacity="0.11"/><rect x="965.17" y="200.88" width="35.79" height="26.1" fill="#B4BEC9" opacity="0.08"/><rect x="751.04" y="258.3" width="35.79" height="26.1" fill="#B4BEC9" opacity="0.06"/><rect x="793.87" y="258.3" width="35.79" height="26.1" fill="#B4BEC9" opacity="0.07"/><rect x="836.69" y="258.3" width="35.79" height="26.1" fill="#B4BEC9" opacity="0.09"/><rect x="879.52" y="258.3" width="35.79" height="26.1" fill="#FFCB8E" opacity="0.62"/><rect x="922.35" y="258.3" width="35.79" height="26.1" fill="#B4BEC9" opacity="0.07"/><rect x="965.17" y="258.3" width="35.79" height="26.1" fill="#B4BEC9" opacity="0.08"/><rect x="751.04" y="315.72" width="35.79" height="26.1" fill="#B4BEC9" opacity="0.08"/><rect x="793.87" y="315.72" width="35.79" height="26.1" fill="#B4BEC9" opacity="0.07"/><rect x="836.69" y="315.72" width="35.79" height="26.1" fill="#FFCB8E" opacity="0.48"/><rect x="879.52" y="315.72" width="35.79" height="26.1" fill="#B4BEC9" opacity="0.08"/><rect x="922.35" y="315.72" width="35.79" height="26.1" fill="#B4BEC9" opacity="0.1"/><rect x="965.17" y="315.72" width="35.79" height="26.1" fill="#B4BEC9" opacity="0.11"/><rect x="751.04" y="373.14" width="35.79" height="26.1" fill="#B4BEC9" opacity="0.06"/><rect x="793.87" y="373.14" width="35.79" height="26.1" fill="#B4BEC9" opacity="0.06"/><rect x="836.69" y="373.14" width="35.79" height="26.1" fill="#B4BEC9" opacity="0.09"/><rect x="879.52" y="373.14" width="35.79" height="26.1" fill="#B4BEC9" opacity="0.11"/><rect x="922.35" y="373.14" width="35.79" height="26.1" fill="#B4BEC9" opacity="0.05"/><rect x="965.17" y="373.14" width="35.79" height="26.1" fill="#FFCB8E" opacity="0.56"/><rect x="751.04" y="430.56" width="35.79" height="26.1" fill="#B4BEC9" opacity="0.05"/><rect x="793.87" y="430.56" width="35.79" height="26.1" fill="#B4BEC9" opacity="0.06"/><rect x="836.69" y="430.56" width="35.79" height="26.1" fill="#B4BEC9" opacity="0.05"/><rect x="879.52" y="430.56" width="35.79" height="26.1" fill="#B4BEC9" opacity="0.08"/><rect x="922.35" y="430.56" width="35.79" height="26.1" fill="#FFCB8E" opacity="0.66"/><rect x="965.17" y="430.56" width="35.79" height="26.1" fill="#FFCB8E" opacity="0.48"/><rect x="751.04" y="487.98" width="35.79" height="26.1" fill="#FFCB8E" opacity="0.54"/><rect x="793.87" y="487.98" width="35.79" height="26.1" fill="#B4BEC9" opacity="0.07"/><rect x="836.69" y="487.98" width="35.79" height="26.1" fill="#B4BEC9" opacity="0.11"/><rect x="879.52" y="487.98" width="35.79" height="26.1" fill="#FFCB8E" opacity="0.68"/><rect x="922.35" y="487.98" width="35.79" height="26.1" fill="#B4BEC9" opacity="0.09"/><rect x="965.17" y="487.98" width="35.79" height="26.1" fill="#B4BEC9" opacity="0.07"/><rect x="751.04" y="545.4" width="35.79" height="26.1" fill="#FFCB8E" opacity="0.46"/><rect x="793.87" y="545.4" width="35.79" height="26.1" fill="#FFCB8E" opacity="0.47"/><rect x="836.69" y="545.4" width="35.79" height="26.1" fill="#FFCB8E" opacity="0.48"/><rect x="879.52" y="545.4" width="35.79" height="26.1" fill="#B4BEC9" opacity="0.1"/><rect x="922.35" y="545.4" width="35.79" height="26.1" fill="#B4BEC9" opacity="0.1"/><rect x="965.17" y="545.4" width="35.79" height="26.1" fill="#FFCB8E" opacity="0.67"/><rect x="751.04" y="602.82" width="35.79" height="26.1" fill="#FFCB8E" opacity="0.44"/><rect x="793.87" y="602.82" width="35.79" height="26.1" fill="#FFCB8E" opacity="0.6"/><rect x="836.69" y="602.82" width="35.79" height="26.1" fill="#FFCB8E" opacity="0.48"/><rect x="879.52" y="602.82" width="35.79" height="26.1" fill="#B4BEC9" opacity="0.1"/><rect x="922.35" y="602.82" width="35.79" height="26.1" fill="#B4BEC9" opacity="0.07"/><rect x="965.17" y="602.82" width="35.79" height="26.1" fill="#B4BEC9" opacity="0.06"/><rect x="751.04" y="660.24" width="35.79" height="26.1" fill="#B4BEC9" opacity="0.11"/><rect x="793.87" y="660.24" width="35.79" height="26.1" fill="#B4BEC9" opacity="0.07"/><rect x="836.69" y="660.24" width="35.79" height="26.1" fill="#B4BEC9" opacity="0.07"/><rect x="879.52" y="660.24" width="35.79" height="26.1" fill="#B4BEC9" opacity="0.09"/><rect x="922.35" y="660.24" width="35.79" height="26.1" fill="#B4BEC9" opacity="0.1"/><rect x="965.17" y="660.24" width="35.79" height="26.1" fill="#B4BEC9" opacity="0.06"/>
<g opacity="0.9" stroke="#3B4757" stroke-width="4.77" fill="none" stroke-linecap="square"><path d="M672 702 L672 224.68"/><path d="M663.32 224.68 L1214.41 224.68"/><path d="M663.32 224.68 L520.13 224.68"/><path d="M672 133.55 L1214.41 220.34 L520.13 220.34"/><path d="M672 224.68 L672 129.21"/><path d="M1036.5 224.68 L1036.5 445.98"/></g><rect x="1019.14" y="437.3" width="34.71" height="23.87" fill="#E8681B" opacity="0.9"/><g opacity="0.49500000000000005" stroke="#3B4757" stroke-width="2.6" fill="none"><path d="M656.81 224.68 L687.19 277.71"/><path d="M687.19 224.68 L656.81 277.71"/><path d="M656.81 277.71 L687.19 330.75"/><path d="M687.19 277.71 L656.81 330.75"/><path d="M656.81 330.75 L687.19 383.79"/><path d="M687.19 330.75 L656.81 383.79"/><path d="M656.81 383.79 L687.19 436.82"/><path d="M687.19 383.79 L656.81 436.82"/><path d="M656.81 436.82 L687.19 489.86"/><path d="M687.19 436.82 L656.81 489.86"/><path d="M656.81 489.86 L687.19 542.89"/><path d="M687.19 489.86 L656.81 542.89"/><path d="M656.81 542.89 L687.19 595.93"/><path d="M687.19 542.89 L656.81 595.93"/><path d="M656.81 595.93 L687.19 648.96"/><path d="M687.19 595.93 L656.81 648.96"/><path d="M656.81 648.96 L687.19 702"/><path d="M687.19 648.96 L656.81 702"/><path d="M656.81 702 L656.81 224.68 M687.19 702 L687.19 224.68"/></g>
<linearGradient id="gnd" x1="0" y1="0" x2="0" y2="1"><stop offset="0%" stop-color="#232B35" stop-opacity="1"/><stop offset="100%" stop-color="#0A0E13" stop-opacity="1"/></linearGradient>
<rect x="0" y="702" width="1200" height="198" fill="url(#gnd)"/>
<rect x="0" y="702" width="1200" height="49.5" fill="#2A333E" opacity="0.9"/>
<rect x="0" y="702" width="1200" height="3" fill="#E8681B"/>
<path d="M-40 751.5 l22 45 l-14 0 l-22 -45 z" fill="#E8681B" opacity="0.5"/><path d="M6 751.5 l22 45 l-14 0 l-22 -45 z" fill="#E8681B" opacity="0.5"/><path d="M52 751.5 l22 45 l-14 0 l-22 -45 z" fill="#E8681B" opacity="0.5"/><path d="M98 751.5 l22 45 l-14 0 l-22 -45 z" fill="#E8681B" opacity="0.5"/><path d="M144 751.5 l22 45 l-14 0 l-22 -45 z" fill="#E8681B" opacity="0.5"/><path d="M190 751.5 l22 45 l-14 0 l-22 -45 z" fill="#E8681B" opacity="0.5"/><path d="M236 751.5 l22 45 l-14 0 l-22 -45 z" fill="#E8681B" opacity="0.5"/><path d="M282 751.5 l22 45 l-14 0 l-22 -45 z" fill="#E8681B" opacity="0.5"/><path d="M328 751.5 l22 45 l-14 0 l-22 -45 z" fill="#E8681B" opacity="0.5"/><path d="M374 751.5 l22 45 l-14 0 l-22 -45 z" fill="#E8681B" opacity="0.5"/><path d="M420 751.5 l22 45 l-14 0 l-22 -45 z" fill="#E8681B" opacity="0.5"/><path d="M466 751.5 l22 45 l-14 0 l-22 -45 z" fill="#E8681B" opacity="0.5"/><path d="M512 751.5 l22 45 l-14 0 l-22 -45 z" fill="#E8681B" opacity="0.5"/><path d="M558 751.5 l22 45 l-14 0 l-22 -45 z" fill="#E8681B" opacity="0.5"/><path d="M604 751.5 l22 45 l-14 0 l-22 -45 z" fill="#E8681B" opacity="0.5"/><path d="M650 751.5 l22 45 l-14 0 l-22 -45 z" fill="#E8681B" opacity="0.5"/><path d="M696 751.5 l22 45 l-14 0 l-22 -45 z" fill="#E8681B" opacity="0.5"/><path d="M742 751.5 l22 45 l-14 0 l-22 -45 z" fill="#E8681B" opacity="0.5"/><path d="M788 751.5 l22 45 l-14 0 l-22 -45 z" fill="#E8681B" opacity="0.5"/><path d="M834 751.5 l22 45 l-14 0 l-22 -45 z" fill="#E8681B" opacity="0.5"/><path d="M880 751.5 l22 45 l-14 0 l-22 -45 z" fill="#E8681B" opacity="0.5"/><path d="M926 751.5 l22 45 l-14 0 l-22 -45 z" fill="#E8681B" opacity="0.5"/><path d="M972 751.5 l22 45 l-14 0 l-22 -45 z" fill="#E8681B" opacity="0.5"/><path d="M1018 751.5 l22 45 l-14 0 l-22 -45 z" fill="#E8681B" opacity="0.5"/><path d="M1064 751.5 l22 45 l-14 0 l-22 -45 z" fill="#E8681B" opacity="0.5"/><path d="M1110 751.5 l22 45 l-14 0 l-22 -45 z" fill="#E8681B" opacity="0.5"/><path d="M1156 751.5 l22 45 l-14 0 l-22 -45 z" fill="#E8681B" opacity="0.5"/><path d="M1202 751.5 l22 45 l-14 0 l-22 -45 z" fill="#E8681B" opacity="0.5"/>
<rect width="1200" height="900" fill="url(#vig)"/>
<rect width="1200" height="900" filter="url(#gr)" opacity="0.07" style="mix-blend-mode:overlay"/>
</svg>